<?xml version="1.0" encoding="UTF-8"?>
<svg id="_레이어_2" data-name="레이어 2" xmlns="http://www.w3.org/2000/svg" viewBox="0 0 90 90">
  <defs>
    <style>
      .cls-1 {
        fill: #e2e2e2;
      }

      .cls-2 {
        fill: none;
        stroke: #afafaf;
        stroke-miterlimit: 10;
      }

      .cls-3 {
        fill: #ccc;
      }
    </style>
  </defs>
  <g id="_레이어_1-2" data-name="레이어 1">
    <rect class="cls-1" width="90" height="90"/>
    <path class="cls-3" d="M79.39,89.08c0-8.98-3.48-10.41-5.52-11.85s-15.1-2.15-17.42-5.03c-.35-.43-.61-1.05-.8-1.79-.83-3.16,.09-6.54,2.31-8.93,2.09-2.25,3.81-5.04,5.04-8.2,2.93-1.02,5.19-4.63,5.36-9l.02-.57c.11-2.81-1.32-5.19-3.27-5.59v-1.82c0-11.11-9-20.11-20.11-20.11s-20.11,9-20.11,20.11v1.82c-1.95,.41-3.38,2.78-3.27,5.59l.02,.57c.17,4.37,2.43,7.97,5.36,9,1.23,3.16,2.95,5.95,5.04,8.2,2.22,2.4,3.14,5.77,2.31,8.93-.2,.74-.46,1.36-.8,1.79-2.32,2.87-15.39,3.59-17.42,5.03s-5.52,2.87-5.52,11.85v.92H79.39v-.92Z"/>
    <path class="cls-2" d="M79.39,90v-.92c0-8.98-3.48-10.41-5.52-11.85s-15.1-2.15-17.42-5.03c-.35-.43-.61-1.05-.8-1.79-.83-3.16,.09-6.54,2.31-8.93,2.09-2.25,3.81-5.04,5.04-8.2,2.93-1.02,5.19-4.63,5.36-9l.02-.57c.11-2.81-1.32-5.19-3.27-5.59v-1.82c0-11.11-9-20.11-20.11-20.11s-20.11,9-20.11,20.11v1.82c-1.95,.41-3.38,2.78-3.27,5.59l.02,.57c.17,4.37,2.43,7.97,5.36,9,1.23,3.16,2.95,5.95,5.04,8.2,2.22,2.4,3.14,5.77,2.31,8.93-.2,.74-.46,1.36-.8,1.79-2.32,2.87-15.39,3.59-17.42,5.03s-5.52,2.87-5.52,11.85v.92"/>
  </g>
</svg>